<?xml version="1.0" encoding="UTF-8"?>
<!-- Generator: visioncortex VTracer 0.6.12 -->
<svg version="1.1" xmlns="http://www.w3.org/2000/svg" width="96" height="96">
<path d="M0 0 C4.233123108892585 0.14853063539973732 6.461023221792772 0.6406821478618454 10 3 C11.319999999999993 2.009999999999998 12.64 1.0200000000000031 14 0 C17.0625 0.0625 17.0625 0.0625 20 1 C23.63717016449735 5.849560219329803 23.432655611195088 8.031712992347735 23.4375 14 C23.447167968749994 14.794062499999995 23.447167968749994 14.794062499999995 23.49609375 18.8125 C23 23 23 23 19 27 C14.59375 27.49609375 14.59375 27.49609375 9.5 27.4375 C7.819062500000001 27.436210937499993 6.138125000000002 27.434921875 4.40625 27.43359375 C0 27 0 27 -4 24 C-4.6735348744067124 18.70794027251867 -4.295627896352379 17.39417052846983 -1 13 C-1.990000000000002 12.010000000000005 -2.979999999999997 11.019999999999996 -4 10 C-4 4 -4 4 0 0 Z M1 5 C1 9 1 9 3.9375 12.0625 C4.9481250000000045 13.031875 5.958750000000002 14.001249999999999 7 15 C7.329999999999998 15.989999999999995 7.659999999999997 16.980000000000004 8 18 C5.666666666666664 18 3.3333333333333357 18 1 18 C0.6700000000000017 18.99000000000001 0.3400000000000034 19.980000000000004 0 21 C2 23 2 23 5.44140625 23.23046875 C6.801367187499999 23.216289062499996 8.161328124999997 23.202109374999992 9.5625 23.1875 C10.925039062500005 23.181054687499994 12.287578124999996 23.174609375000003 13.69140625 23.16796875 C17 23 17 23 18 22 C18.177974915303096 19.14948373358817 18.267842685631436 16.29321773462101 18.3125 13.4375 C18.3498828125 11.868710937499998 18.387265624999998 10.299921874999995 18.42578125 8.68359375 C18.285273437499995 7.468007812499998 18.144765625000005 6.252421874999996 18 5 C16.680000000000007 5 15.36 5 14 5 C13.75 9 13.75 9 14 13 C9 10 9 10 6.375 7.3125 C4 5 4 5 1 5 Z " fill="#D7D7D7" transform="translate(57,53)"/>
<path d="M0 0 C0.8971875000000011 0.0038671874999991473 0.8971875000000011 0.0038671874999991473 5.4375 0.0234375 C7.231875000000002 0.01570312499999993 9.026250000000005 0.007968749999999858 10.875 0 C15.4375 0.3984375 15.4375 0.3984375 18.4375 3.3984375 C18.86167197240468 8.064329196451453 18.566849510995716 10.139738478008567 16.4375 14.3984375 C17.097499999999997 15.0584375 17.7575 15.7184375 18.4375 16.3984375 C18.8125 20.3359375 18.8125 20.3359375 18.4375 24.3984375 C14.4375 27.3984375 14.4375 27.3984375 11.375 27.2734375 C8.4375 26.3984375 8.4375 26.3984375 5.4375 23.3984375 C4.674374999999998 24.0171875 3.911249999999999 24.635937499999997 3.125 25.2734375 C0.4375 27.3984375 0.4375 27.3984375 -2.75 27.2734375 C-5.5625 26.3984375 -5.5625 26.3984375 -7.5625 24.3984375 C-7.785573313298748 20.924867335776625 -7.867910960326629 17.441655979625352 -7.875 13.9609375 C-7.8917578125 12.064726562499999 -7.908515625 10.168515624999998 -7.92578125 8.21484375 C-7.441002413241868 1.7876146562067134 -6.443694934871122 0.5627199343808691 0 0 Z M-3.5625 5.3984375 C-3.7404749153030927 8.248953766411823 -3.8303426856314395 11.10521976537899 -3.875 13.9609375 C-3.912382812499999 15.529726562500002 -3.9497656250000013 17.098515625000005 -3.98828125 18.71484375 C-3.847773437499999 19.930429687500002 -3.707265624999998 21.146015625000004 -3.5625 22.3984375 C-2.2424999999999997 22.3984375 -0.9224999999999994 22.3984375 0.4375 22.3984375 C0.6875 18.3984375 0.6875 18.3984375 0.4375 14.3984375 C5.4375 17.3984375 5.4375 17.3984375 8 20.0859375 C10.4375 22.3984375 10.4375 22.3984375 14.4375 22.3984375 C13.210599332259164 17.49083482903667 10.995894009666827 15.882698301132102 7.4375 12.3984375 C7.107500000000002 11.408437499999998 6.7775 10.4184375 6.4375 9.3984375 C7.55125 9.419062499999999 8.665 9.439687499999998 9.8125 9.4609375 C11.00875 9.440312500000001 12.204999999999998 9.419687500000002 13.4375 9.3984375 C13.767499999999998 8.0784375 14.097499999999997 6.758437499999999 14.4375 5.3984375 C13.4375 4.3984375 13.4375 4.3984375 9.875 4.265625 C9.142812499999998 4.2669140625 9.142812499999998 4.2669140625 5.4375 4.2734375 C3.9731249999999996 4.270859375000001 2.508749999999999 4.268281250000001 1 4.265625 C-2.5625 4.3984375 -2.5625 4.3984375 -3.5625 5.3984375 Z " fill="#DADADA" transform="translate(23.5625,15.6015625)"/>
</svg>
