<?xml version="1.0" encoding="UTF-8"?>
<!-- Generator: visioncortex VTracer 0.6.12 -->
<svg version="1.1" xmlns="http://www.w3.org/2000/svg" width="96" height="96">
<path d="M0 0 C7.457918925475568 -0.16212867229294758 14.55463417138126 2.929373134896551 20.15283203125 7.669677734375 C23.552703651200282 10.963413661606978 26.852834456929926 14.329445554395356 30.125 17.75 C30.6986328125 18.337167968750002 30.6986328125 18.337167968750002 33.6015625 21.30859375 C36.415184622743716 24.192556425812313 39.21378131740954 27.089595570414083 42 30 C38.99999999999999 25 38.99999999999999 25 36.3125 22.375 C34 20 34 20 34 17 C39.647906494209366 18.41197662355234 43.03988057119457 21.086604485520255 46 26 C47.200996508508865 31.700730093722065 47.685914664911024 37.205203692992995 47 43 C43 47 43 47 39.75 47.6875 C34.51814821457034 46.72832717267123 31.765877824795325 43.53193692961864 28 40 C27.065751953125 39.126257324218756 26.131503906250003 38.2525146484375 25.1689453125 37.352294921875 C21.998796916125528 34.348344059526866 18.872140460343424 31.30377242106583 15.75 28.25 C14.674921874999995 27.229062499999998 13.599843749999998 26.208124999999995 12.4921875 25.15625 C5.995105996111935 18.77258388396035 2.228889160972212 13.888039493753396 0 5 C0 3.3500000000000014 0 1.6999999999999993 0 0 Z M6 6 C7.868353383301972 12.781611237435065 10.045770125506458 16.799719048236014 15.0234375 21.75 C16.209375 22.9346484375 17.395312500000003 24.119296875000003 18.6171875 25.33984375 C19.857265624999997 26.547695312499997 21.09734375 27.755546875 22.375 29 C23.60734375 30.238789062500004 24.839687499999997 31.477578125 26.109375 32.75390625 C35.33187319364162 41.86637463872833 35.33187319364162 41.86637463872833 41 43 C41.66 42.34 42.31999999999999 41.68000000000001 43 41 C41.318383818915066 32.59191909457531 34.37614079439835 27.721492063522675 28.4375 21.8125 C27.173574218750005 20.516347656249998 25.909648437499996 19.220195312499996 24.607421875 17.884765625 C23.37443359375 16.65048828125 22.141445312499997 15.416210937499997 20.87109375 14.14453125 C19.74630615234375 13.013781738281253 18.621518554687498 11.883032226562499 17.462646484375 10.718017578125 C13.645018746862782 7.7213561100488874 10.741367933585153 6.817946755311816 6 6 Z " fill="#E4E4E4" transform="translate(23,27)"/>
</svg>
