<?xml version="1.0" encoding="UTF-8"?>
<!-- Generator: visioncortex VTracer 0.6.12 -->
<svg version="1.1" xmlns="http://www.w3.org/2000/svg" width="96" height="96">
<path d="M0 0 C6 0 6 0 8.875 1.9375 C11.720461700160861 6.038312450231832 11.071834923325042 9.11522521389687 11 14 C12.32 14.329999999999998 13.64 14.66 15 15 C15 16.32 15 17.64 15 19 C7.650000000000006 18.650000000000006 7.650000000000006 18.650000000000006 6 17 C6.0578625275079006 14.957452778971163 6.145833836703773 12.91570983548528 6.25 10.875 C6.208750000000002 9.905625 6.208750000000002 9.905625 6 5 C4.350000000000001 5.329999999999998 2.6999999999999993 5.66 1 6 C0.404052734375 8.883300781250007 0.404052734375 8.883300781250007 0.43359375 12.6953125 C0.42263671874999886 14.0501171875 0.4116796875000013 15.404921875 0.400390625 16.80078125 C0.41263671875000085 18.227773437500005 0.4248828125000017 19.654765624999996 0.4375 21.125 C0.4539401320806711 23.940056462428814 0.45372029327703345 26.755279980319145 0.43359375 29.5703125 C0.4444702148437507 30.8260205078125 0.4553466796875014 32.081728515625 0.466552734375 33.37548828125 C0.31259033203124886 34.2415771484375 0.15862792968750128 35.107666015625 0 36 C-4 35 -4 35 -7 33 C-7.66 33.165 -7.66 33.165 -11 34 C-8.738658268641576 38.52268346271685 -6.090956907485136 41.14023836461922 -2.5 44.6875 C-1.3346875000000011 45.8463671875 -0.16937500000000227 47.005234375 1.03125 48.19921875 C5.600166105931891 52.50963039204365 8.753362433315822 52.39331818902207 15.07421875 52.35546875 C17.999999999999993 52 17.999999999999993 52 21.125 49.6875 C23.595302894283968 46.14673251819298 24.974646006637244 44.12133696823605 25.875 39.8125 C26.246250000000003 38.554375 26.6175 37.29625 27 36 C28.32 36 29.64 36 31 36 C31.993126794178565 41.958760765071375 30.106837121734692 45.98126311104395 27 51 C21.893029748493078 56.015774354158594 18.8655598968215 57.8338805856915 11.6875 58.25 C2.669576736018776 57.76904409258768 -1.6979061783800553 53.79195592144863 -7.875 47.4375 C-9.192421875 46.0955859375 -10.509843750000002 44.753671875 -11.8671875 43.37109375 C-16 38.923940149625935 -16 38.923940149625935 -16 32 C-13 28 -13 28 -10 27.1875 C-7 27 -7 27 -4 28 C-3.8464698139888647 22.949250547377297 -3.992296563889713 17.977186957628867 -4.205078125 12.931640625 C-4.27830008942049 9.954542705757142 -4.149428783476328 6.974246882069906 -4 4 C-2.6799999999999997 2.6799999999999997 -1.3599999999999994 1.3599999999999994 0 0 Z " fill="#D0D0D0" transform="translate(27,17)"/>
<path d="M0 0 C5 3 5 3 7 7 C7.826652956503182 13.245822338024098 7.50683385521053 15.333607338519485 3.625 20.4375 C2.428750000000001 21.613124999999997 1.2325000000000017 22.78875 0 24 C-0.6599999999999966 24.659999999999997 -1.3200000000000003 25.32 -2 26 C-8.433507604850277 24.713298479029945 -9.987668788997361 22.015414013753293 -14 17 C-15.698110303153364 13.603779393693273 -15.329058781938897 10.729332861974171 -15 7 C-10.457491297812311 0.4253163520967682 -7.893071618455217 -0.47122815632568305 0 0 Z M-5 8 C-5.659999999999997 8.659999999999997 -6.32 9.32 -7 10 C-7 11.32 -7 12.64 -7 14 C-6.174999999999997 14.165 -6.174999999999997 14.165 -2 15 C-1.6700000000000017 14.670000000000002 -1.3400000000000034 14.340000000000003 -1 14 C-1 12.350000000000001 -1 10.700000000000003 -1 9 C-2.3200000000000003 8.670000000000002 -3.6400000000000006 8.340000000000003 -5 8 Z " fill="#DFDFDF" transform="translate(59,25)"/>
</svg>
